<svg width="35" height="35" viewBox="0 0 35 35" fill="none" xmlns="http://www.w3.org/2000/svg">
<g id="mingcute:upload-line" clip-path="url(#clip0_894_4205)">
<g id="Group">
<path id="Vector" d="M11.6667 13.1241V16.0408H7.29167V29.1658H27.7083V16.0408H23.3333V13.1241H27.7083C28.4819 13.1241 29.2237 13.4314 29.7707 13.9784C30.3177 14.5254 30.625 15.2673 30.625 16.0408V29.1658C30.625 29.9394 30.3177 30.6812 29.7707 31.2282C29.2237 31.7752 28.4819 32.0825 27.7083 32.0825H7.29167C6.51812 32.0825 5.77625 31.7752 5.22927 31.2282C4.68229 30.6812 4.375 29.9394 4.375 29.1658V16.0408C4.375 15.2673 4.68229 14.5254 5.22927 13.9784C5.77625 13.4314 6.51812 13.1241 7.29167 13.1241H11.6667ZM18.7892 3.59977L23.6877 8.49685C23.9614 8.77049 24.1151 9.14163 24.1151 9.52862C24.1151 9.91561 23.9614 10.2867 23.6877 10.5604C23.4141 10.834 23.0429 10.9878 22.6559 10.9878C22.2689 10.9878 21.8978 10.834 21.6242 10.5604L18.9583 7.8931V21.8741C18.9583 22.2609 18.8047 22.6318 18.5312 22.9053C18.2577 23.1788 17.8868 23.3325 17.5 23.3325C17.1132 23.3325 16.7423 23.1788 16.4688 22.9053C16.1953 22.6318 16.0417 22.2609 16.0417 21.8741V7.8931L13.3758 10.5604C13.2403 10.6959 13.0795 10.8034 12.9025 10.8767C12.7254 10.95 12.5357 10.9878 12.3441 10.9878C12.1524 10.9878 11.9627 10.95 11.7857 10.8767C11.6086 10.8034 11.4478 10.6959 11.3123 10.5604C11.1768 10.4249 11.0693 10.264 10.996 10.087C10.9227 9.90998 10.8849 9.72024 10.8849 9.52862C10.8849 9.337 10.9227 9.14726 10.996 8.97023C11.0693 8.7932 11.1768 8.63234 11.3123 8.49685L16.2123 3.59977C16.5541 3.25825 17.0175 3.06641 17.5007 3.06641C17.9839 3.06641 18.4473 3.25825 18.7892 3.59977Z" fill="#F16264"/>
</g>
</g>
<defs>
<clipPath id="clip0_894_4205">
<rect width="35" height="35" fill="white"/>
</clipPath>
</defs>
</svg>
